PathFileType	4	(X/Y/Z)	13_coords_data.trc
DataRate	CameraRate	NumFrames	NumMarkers	Units	OrigDataRate	OrigDataStartFrame	OrigNumFrames
30.0	30.0	9	21	m	30.0	38	66
Frame#	Time	THUMB_TIP	THUMB_IP	THUMB_MCP	THUMB_CMC	INDEX_TIP	INDEX_DIP	INDEX_PIP	INDEX_MCP	MIDDLE_TIP	MIDDLE_DIP	MIDDLE_PIP	MIDDLE_MCP	RING_TIP	RING_DIP	RING_PIP	RING_MCP	PINKY_TIP	PINKY_DIP	PINKY_PIP	PINKY_MCP	WRIST
X1	Y1	Z1	X2	Y2	Z2	X3	Y3	Z3	X4	Y4	Z4	X5	Y5	Z5	X6	Y6	Z6	X7	Y7	Z7	X8	Y8	Z8	X9	Y9	Z9	X10	Y10	Z10	X11	Y11	Z11	X12	Y12	Z12	X13	Y13	Z13	X14	Y14	Z14	X15	Y15	Z15	X16	Y16	Z16	X17	Y17	Z17	X18	Y18	Z18	X19	Y19	Z19	X20	Y20	Z20	X21	Y21	Z21
36	1.233333333333328	0.502217205410183	-0.03248454363103237	-0.1672485088270077	0.4953167201087542	-0.03368018798978334	-0.145363497125568	0.4760675180671434	-0.035786459651003355	-0.12099442163119634	0.4727603020127245	-0.03332484417135906	-0.07657716404813775	0.5766842299627625	0.007139957311753542	-0.15980672819990316	0.5603433459234657	0.012319070197057802	-0.1539627314052831	0.5374419234177131	0.015230356863121464	-0.14400988808485365	0.5038250673332676	0.0026202270808648453	-0.12110731818817355	0.5971068589648152	0.03287120677238786	-0.13695633217854186	0.5802503037630565	0.03180791867592658	-0.13041982201225388	0.5531467870867082	0.028767473924755094	-0.12014535708750074	0.5152374856873814	0.013486179073258109	-0.10210332793120513	0.6023042952594166	0.02196426412515662	-0.11392770757524573	0.5859011743628695	0.02356099925194244	-0.10662099410144965	0.5629228177011302	0.024191819656793845	-0.09704095392707024	0.5265286949848437	0.012934102611027565	-0.08349649112379343	0.6034458278659849	-0.004778095531436266	-0.07037519951810567	0.5870420116672619	-0.0006947827910130933	-0.06768421992278872	0.5665388906577069	0.0031290559868460965	-0.0652733477012708	0.5305435011930185	0.0029896146944546897	-0.06299388627115687	0.46228308100186094	-0.023011742144276925	-0.051989820119430985
37	1.2666666666666608	0.5071254981542614	-0.03226679191485782	-0.16520315822143167	0.49853370915587536	-0.033359084761331426	-0.1439196421081398	0.4779955218097131	-0.03581870761815753	-0.12066124328242278	0.4733166227789877	-0.033224010672862736	-0.0763750665268893	0.5767667885833467	0.003724174493096255	-0.1575560021843465	0.5606433518057451	0.01020688256691793	-0.15245607252715598	0.5376485887900656	0.014739073623424193	-0.1433615713819547	0.5030160567151074	0.003633257238590981	-0.1212056543730976	0.5971860401902187	0.028904469983200176	-0.13680709270909364	0.5802816943270266	0.0291958668135055	-0.1303141597181513	0.552977369600586	0.02811267987015731	-0.12017956020564746	0.51438643817535	0.014691294723533144	-0.10210321230352082	0.6016539604570368	0.019253590956422317	-0.11411827484772474	0.585425377176881	0.021982934881424443	-0.10675731251538634	0.5625389312139125	0.024056803210646183	-0.09716097778085486	0.525777024571094	0.014269897530209463	-0.08346793096186911	0.6022246585466697	-0.006627327623731305	-0.07209630895426467	0.5861973627176913	-0.0014935110712676058	-0.06897065446023343	0.5659856597901547	0.0034051157050315473	-0.06608924170334995	0.5300669386510282	0.004237099807176681	-0.06292116260341374	0.46228308100186083	-0.023011742144276925	-0.051989820119430985
38	1.299999999999994	0.5121926552540873	-0.032017537791489525	-0.16278938276157784	0.5018865561520633	-0.033012863491505784	-0.14227612733855566	0.480070734030498	-0.03580661075860869	-0.12025148474513814	0.47390217387099026	-0.03309678819698292	-0.0761550480722839	0.5765393769925824	0.0005798156698407775	-0.1552266957815751	0.5607261018836547	0.008254984821768563	-0.15086411525868865	0.5377615055912092	0.01434259054824305	-0.1426435187691394	0.5022259061940567	0.0046648670516892254	-0.12126130799921786	0.5970203415203087	0.024668934552828925	-0.136408315577351	0.5801603602402121	0.02639192616243058	-0.1300229940390073	0.552777660170909	0.02735816921613654	-0.12009003570446486	0.5135418349609475	0.015895054170938616	-0.10205410116937885	0.6008086121071237	0.01616985672417892	-0.114093752320094	0.5848437828579922	0.020159526067189626	-0.10673122791745049	0.5621380363978459	0.023773000343757178	-0.09716190921964685	0.5250090395676278	0.015604843122126066	-0.08339820201612114	0.6007212617916485	-0.008775247194242497	-0.07372011016971769	0.5851949943853565	-0.0025054249586345945	-0.07016703409929803	0.5653614585319279	0.003518892474695723	-0.06682780155075696	0.5295717383587355	0.005480013258411187	-0.0628111628818856	0.46228308100186094	-0.023011742144276925	-0.051989820119430985
39	1.3333333333333275	0.5170198410911249	-0.03175066352835065	-0.16015316983176325	0.5050938678959984	-0.03264970786280019	-0.1405326988222838	0.4821067528649999	-0.03574947883356738	-0.11977688126477881	0.47450749650638524	-0.03296720597697833	-0.075908894525614	0.5760187697008174	-0.002054260685682485	-0.1530412685413468	0.5605665087422693	0.006646065621161434	-0.1493626881870027	0.5377247039436751	0.014089920875329343	-0.14195655522182327	0.5014498913474263	0.0056741226031593595	-0.12129382537920153	0.5965096523464943	0.02058334832507902	-0.13586539980509482	0.5797988260738489	0.023724565185314517	-0.12962993334921258	0.5524726637147792	0.02667775104823833	-0.11993616762144754	0.5127104260382944	0.01707769606839138	-0.1019653212211622	0.5997062122236821	0.013104319422691968	-0.11390876703745612	0.5840962184971561	0.018360436445436057	-0.10658064792672683	0.5616532786019546	0.023500719654289126	-0.09709002537637934	0.5242198549661113	0.016944214066661578	-0.08328887095441506	0.5989548528723151	-0.010928964641861771	-0.07518584305649578	0.5840167211267768	-0.0035569744078162158	-0.07124807973932235	0.564649105314169	0.0036207171354810663	-0.06748135425894763	0.5290411628677353	0.006752890596892769	-0.0626701823498288	0.4622830810018609	-0.023011742144276925	-0.051989820119430985
40	1.3666666666666607	0.5213604254845841	-0.031425907244639784	-0.15748391447844934	0.5080140800695434	-0.032272355336318226	-0.13879812871251174	0.4840193471322844	-0.035690912855963264	-0.11926901568210246	0.47506050654448145	-0.03286422911824971	-0.07566122928598651	0.5753378013062116	-0.004086060487052179	-0.15117054226362564	0.5602437266659108	0.005426732238900778	-0.1480599659012638	0.5375795548069238	0.013980910907279709	-0.14133901550301242	0.5007301955856582	0.006607370173706273	-0.12130425281331558	0.5957441089658413	0.016863199569245424	-0.1352433931685585	0.5792697814568879	0.021316738400712465	-0.1291801823851243	0.5521104859128427	0.026076422406601574	-0.11973943963281442	0.5119424036295037	0.018169219016698324	-0.10184672543877382	0.5984497955459528	0.010217581406019693	-0.11360107196961178	0.5832650639240844	0.01667750720266714	-0.10634205796813456	0.5611489217199044	0.023236493650622747	-0.09695931158021465	0.5234914294317452	0.01816196607867493	-0.08314326010054907	0.5970370681391144	-0.013060579399281957	-0.07643920435917662	0.5827595162671171	-0.00463556718635294	-0.07217649609395094	0.5639149661320118	0.003636289817130378	-0.06802061701493212	0.5285329304082813	0.007928757013671794	-0.06249162755832427	0.46228308100186083	-0.023011742144276925	-0.051989820119430985
41	1.3999999999999937	0.5250526381148894	-0.030927381319990177	-0.15498629167663613	0.5105175051014694	-0.03179161770180394	-0.1372103809050742	0.48572218075288254	-0.03557174845692179	-0.11877881824960224	0.47553646693017326	-0.03276415206717653	-0.07543993690231587	0.574670141254694	-0.005438649692355191	-0.14968891080533842	0.5598820714828402	0.004664748571361899	-0.14699923871612303	0.5373911513236953	0.014025078915926414	-0.14079016799373656	0.5001118102532651	0.007445330390689953	-0.12128135632569315	0.5948771126679047	0.013772611992050598	-0.13460353748561693	0.5786810954135957	0.01933112882427168	-0.12870507025047528	0.551747297526568	0.025602022946272895	-0.11950420244947946	0.5112844309746363	0.019120590663641468	-0.10170264670380869	0.5971700074002124	0.007641574089825798	-0.11317852689425545	0.5824352036327618	0.015166918126686135	-0.10601928426241136	0.560681259988103	0.022978429749279772	-0.09674964559226384	0.5228608620466216	0.019220948007505734	-0.08295763107268628	0.5951047376387046	-0.015067943829177866	-0.07740565827621115	0.5815031713205665	-0.005703090246181541	-0.07290044895118208	0.5632023814021323	0.0035627920776677424	-0.06842423044423729	0.5280702028222325	0.008962063460725034	-0.06230366284293343	0.4622830810018609	-0.023011742144276925	-0.051989820119430985
42	1.4333333333333271	0.5279065024369743	-0.030243367102792296	-0.1528935580742387	0.5124625510009405	-0.031205449708785693	-0.13590654064619456	0.48708287022798297	-0.035333393152056525	-0.11836653247082796	0.4759250412375175	-0.03266095773224553	-0.07525909759995597	0.5740802557142218	-0.006137825672725694	-0.1486763225975391	0.559520049866429	0.00435919804999807	-0.14626532723576985	0.5371679152029653	0.014256588166207562	-0.14039731412450773	0.4996322086621572	0.008142243934911364	-0.12123167760746101	0.5940567861713435	0.011484604948349797	-0.13403089037972604	0.5781282846150351	0.017896915825246884	-0.12827197490989073	0.5514261661036881	0.025350500266124842	-0.11928028452439077	0.5107854320935775	0.019875812748279986	-0.10154595463286709	0.5960001732689693	0.0055954424288618965	-0.11273529554644124	0.5816878872442954	0.013994078387323028	-0.10569105088961839	0.5602813367428037	0.022815934184687414	-0.09651965868790813	0.5223573608942389	0.0200655741486665	-0.08277453557060799	0.5933307757951056	-0.016764356763092847	-0.07809709169190893	0.5803627529655553	-0.006622444640655645	-0.07340966143717242	0.5625666582207209	0.003469950708548386	-0.06869218468065885	0.5276756991357514	0.00981868215747328	-0.062119663541824965	0.46228308100186083	-0.023011742144276925	-0.051989820119430985
43	1.4666666666666603	0.5297927002578915	-0.02947031411816059	-0.15141897150519207	0.513736727093285	-0.030604916090337775	-0.13502023972184463	0.48801101836972505	-0.035080197664650425	-0.11807976258862407	0.47619453985346794	-0.03256533685573926	-0.07513868306578675	0.5736701771153419	-0.00635839083541212	-0.1481125904153741	0.5592500474074709	0.00436185905993558	-0.145846293570413	0.5369926081767669	0.014563758397140192	-0.14014213002042097	0.4993286081139317	0.008637945686066573	-0.12116994150723037	0.5934334185921007	0.010014975700768924	-0.13360162081911275	0.577717873139416	0.01700994885985163	-0.12793664229944368	0.5512031778140152	0.02526325542735397	-0.11908998120590142	0.5104681044056897	0.020408201309277563	-0.10139167154286066	0.5950910448859186	0.004128367582604597	-0.11233970465246079	0.5811223786953882	0.013158462468304988	-0.10538745672730843	0.560001283924126	0.022723322444000993	-0.09629939927212627	0.5220200419926475	0.020660576935307873	-0.08259205903746103	0.5919099358478627	-0.018047732700433694	-0.07848498213999511	0.5794594308911571	-0.007328670254124758	-0.07368012765778875	0.5620836183079467	0.003397556109248745	-0.06879738006295866	0.5273845505466213	0.010448749499840204	-0.061931608492084234	0.46228308100186094	-0.023011742144276925	-0.051989820119430985
44	1.4999999999999936	0.5306907599632493	-0.028663358458206556	-0.1506625352196449	0.5143098777266125	-0.030032074476666226	-0.13460659197079616	0.4884602814994859	-0.03482359776123034	-0.11794346862887728	0.47632443673403724	-0.03251767875109757	-0.0750798009212762	0.5735208868361266	-0.006340405314974595	-0.14790401366555317	0.5591690403682539	0.004479805120939706	-0.14567970498977623	0.5369505649569947	0.014782511471675419	-0.1400048988036775	0.4992482368303062	0.008880244467676324	-0.12110162416564119	0.5931511629934466	0.009268920689704974	-0.13332774235868294	0.5775667691953004	0.01658453015995831	-0.12770559614722232	0.5511631766510681	0.02526016869335912	-0.11893102226606278	0.5103894230890749	0.020647979788150583	-0.10125684180504801	0.5945565505241407	0.0031407915133410125	-0.11200525798638128	0.5808370357057954	0.012585058747818345	-0.10510737935936965	0.5599041399659965	0.022619728109014248	-0.0960907688122633	0.5218926158387348	0.020958907116463643	-0.08241281058914718	0.5909909146023429	-0.018920980582617486	-0.07859534357465148	0.5788997486742695	-0.007823991299014232	-0.07373113394312958	0.5618094825755071	0.0033041154055242217	-0.06874113746558597	0.5272283250415469	0.010802406540202703	-0.061755249929199785	0.46228308100186083	-0.023011742144276925	-0.051989820119430985
